<?xml version="1.0" encoding="iso-8859-1"?>
<!-- Generator: Adobe Illustrator 19.0.0, SVG Export Plug-In . SVG Version: 6.00 Build 0)  -->
<svg version="1.1" id="Layer_1" xmlns="http://www.w3.org/2000/svg" xmlns:xlink="http://www.w3.org/1999/xlink" x="0px" y="0px"
	 viewBox="0 0 512 512" style="enable-background:new 0 0 512 512;" xml:space="preserve">
<path style="fill:#B21100;" d="M504.313,234.477C450.404,247.609,357.576,255.449,256,255.449s-194.404-7.84-248.312-20.972
	c-5.399-1.314-8.713-6.767-7.401-12.178c1.312-5.412,6.758-8.732,12.152-7.416c52.442,12.774,143.494,20.4,243.561,20.4
	s191.118-7.627,243.561-20.4c5.399-1.318,10.841,2.005,12.152,7.416C513.026,227.71,509.712,233.163,504.313,234.477z"/>
<path style="fill:#95B8C2;" d="M187.679,50.087H256h68.315c88.402,1.566,117.914,9.154,132.304,136.093l19.586,172.777
	c2.139,18.877-11.679,34.32-30.704,34.32H343.252H256H168.74H66.499c-19.025,0-32.844-15.442-30.702-34.32L55.38,186.18
	C69.764,59.241,99.284,51.653,187.679,50.087L187.679,50.087z"/>
<path style="fill:#AFD5FF;" d="M367.779,52.313l-44.997,340.962h-66.784h-87.259h-2.937l45.291-343.188h44.906h68.315
	C340.745,50.379,355.137,50.879,367.779,52.313z"/>
<path style="fill:#234556;" d="M445.504,366.416v67.219c0,15.553-12.831,28.277-28.505,28.277h-0.003
	c-15.677,0-28.505-12.724-28.505-28.277v-67.219H445.504z M66.499,433.636c0,15.553,12.829,28.277,28.505,28.277h0.002
	c15.679,0,28.503-12.724,28.503-28.277v-67.219h-57.01C66.499,366.417,66.499,433.636,66.499,433.636z"/>
<path style="fill:#BE5924;" d="M411.826,244.959c0,36.589-29.9,66.249-66.783,66.249s-66.783-29.661-66.783-66.249
	s29.9-66.249,66.783-66.249S411.826,208.369,411.826,244.959z"/>
<path style="fill:#5B7F99;" d="M333.741,310.227c-31.497-5.329-55.48-32.521-55.48-65.286c0-36.589,29.9-66.249,66.783-66.249
	c2.03,0,4.035,0.105,6.018,0.28L333.741,310.227z"/>
<path style="fill:#893912;" d="M389.565,244.959c0,24.392-19.933,44.167-44.522,44.167s-44.522-19.774-44.522-44.167
	s19.933-44.167,44.522-44.167C369.631,200.792,389.565,220.566,389.565,244.959z"/>
<path style="fill:#234556;" d="M336.634,288.31c-20.566-3.902-36.11-21.83-36.11-43.369c0-24.392,19.934-44.167,44.522-44.167
	c1.052,0,2.091,0.049,3.125,0.12L336.634,288.31z"/>
<path style="fill:#DC2C13;" d="M476.204,358.955c2.139,18.877-11.679,34.32-30.704,34.32H343.251h-87.254h-87.259H66.497
	c-19.025,0-32.844-15.442-30.702-34.32l13.158-116.089C101.3,250.963,174.703,256,256,256c81.296,0,154.699-5.037,207.045-13.133
	L476.204,358.955z"/>
<path style="fill:#B21100;" d="M39.685,324.638h432.63l3.89,34.317c2.139,18.877-11.679,34.32-30.704,34.32H343.252h-87.254h-87.259
	H66.497c-19.025,0-32.844-15.442-30.702-34.32L39.685,324.638z"/>
<path style="fill:#651100;" d="M344.556,324.638c0,5.488-4.484,9.937-10.017,9.937H177.461c-5.533,0-10.017-4.449-10.017-9.937
	c0-5.488,4.484-9.937,10.017-9.937h157.076C340.07,314.701,344.556,319.15,344.556,324.638z"/>
<path style="fill:#E69724;" d="M117.508,324.639c0,5.488-4.484,9.937-10.017,9.937H39.686c-5.533,0-10.017-4.449-10.017-9.937
	c0-5.488,4.484-9.937,10.017-9.937h67.804C113.024,314.702,117.508,319.151,117.508,324.639z M472.313,314.702h-67.799
	c-5.533,0-10.017,4.449-10.017,9.937c0,5.488,4.484,9.937,10.017,9.937h67.799c5.533,0,10.017-4.449,10.017-9.937
	C482.33,319.151,477.845,314.702,472.313,314.702z"/>
<g>
</g>
<g>
</g>
<g>
</g>
<g>
</g>
<g>
</g>
<g>
</g>
<g>
</g>
<g>
</g>
<g>
</g>
<g>
</g>
<g>
</g>
<g>
</g>
<g>
</g>
<g>
</g>
<g>
</g>
</svg>
